<?xml version="1.0" encoding="utf-8"?>
<!-- Generator: Adobe Illustrator 15.0.0, SVG Export Plug-In  -->
<!DOCTYPE svg PUBLIC "-//W3C//DTD SVG 1.1//EN" "http://www.w3.org/Graphics/SVG/1.1/DTD/svg11.dtd" [
	<!ENTITY ns_flows "http://ns.adobe.com/Flows/1.0/">
]>
<svg version="1.1"
	 xmlns="http://www.w3.org/2000/svg" xmlns:xlink="http://www.w3.org/1999/xlink" xmlns:a="http://ns.adobe.com/AdobeSVGViewerExtensions/3.0/"
	 x="0px" y="0px" width="140px" height="45px" viewBox="-0.146 0 140 45"
	 overflow="visible" enable-background="new -0.146 0 140 45" xml:space="preserve">
<defs>
</defs>
<g>
	<defs>
		<rect id="SVGID_1_" width="139.708" height="45"/>
	</defs>
	<clipPath id="SVGID_2_">
		<use xlink:href="#SVGID_1_"  overflow="visible"/>
	</clipPath>
	<path clip-path="url(#SVGID_2_)" fill="#262626" d="M42.148,30.08l7.222-8.961c2.71-3.366-3.393-7.801-5.755-4.181l-5.095,7.807
		l-4.955-7.687c-2.567-3.986-9.424,0.996-6.429,4.67l7.159,8.779l-7.22,8.961c-2.713,3.365,3.391,7.8,5.753,4.181l5.095-7.808
		l4.955,7.687c2.567,3.986,9.424-0.996,6.427-4.671L42.148,30.08z"/>
	<path clip-path="url(#SVGID_2_)" fill="#262626" d="M12.288,15.553c-0.835-0.006-1.257-0.006-2.093,0
		c-5.842,0.043-9.986,3.053-10.152,10.73c-0.066,3.104-0.058,6.162,0.034,9.269c0.153,5.317,3.466,9.304,8.817,9.39
		c3.566,0.059,6.929-0.019,10.491-0.229c3.03-0.179,2.848-6.005-0.298-5.825c-2.731,0.156-6.501,0.236-8,0.234
		c-2.06-0.003-3.662-1.097-3.735-3.804c-0.025-0.873-0.042-1.664-0.054-2.536H18.72c1.744,0,3.206-1.496,3.36-3.302
		c0.077-0.895,0.115-1.596,0.152-2.438C22.585,19.072,18.301,15.596,12.288,15.553 M15.111,27.838H7.298
		c0.012-0.872,0.028-1.743,0.054-2.615c0.073-2.73,1.718-3.828,3.78-3.83h0.29c2.097,0.004,3.828,1.206,3.78,4.003
		C15.186,26.209,15.157,27.024,15.111,27.838"/>
	<path clip-path="url(#SVGID_2_)" fill="#262626" d="M79.762,4.307l0.24,4.357c0.236,4.229,7.465,4.229,7.697,0l0.244-4.357
		C88.264-1.436,79.442-1.436,79.762,4.307"/>
	<path clip-path="url(#SVGID_2_)" fill="#262626" d="M79.911,19.107v22.372c0,4.693,7.883,4.693,7.883,0V19.107
		C87.793,14.414,79.911,14.414,79.911,19.107"/>
	<path clip-path="url(#SVGID_2_)" fill="#262626" d="M105.854,15.592c-0.812-0.006-1.322-0.006-2.133,0
		c-5.912,0.043-10.203,2.491-10.383,10.716c-0.057,2.655-0.057,5.316,0,7.972c0.18,8.225,4.469,10.674,10.383,10.716
		c0.811,0.007,1.32,0.007,2.133,0c5.912-0.042,10.199-2.49,10.381-10.715c0.057-2.656,0.057-5.316,0-7.973
		C116.053,18.083,111.768,15.635,105.854,15.592 M108.729,35.316c-0.076,2.732-1.732,3.837-3.818,3.839h-0.246
		c-2.088-0.002-3.746-1.106-3.82-3.839c-0.094-3.349-0.094-6.698,0-10.046c0.074-2.733,1.732-3.837,3.82-3.838h0.246
		c2.086,0.001,3.744,1.104,3.818,3.838C108.825,28.618,108.825,31.968,108.729,35.316"/>
	<path clip-path="url(#SVGID_2_)" fill="#262626" d="M74.981,35.462c-0.119-4.987-2.527-7.369-6.242-7.681
		c-2.042-0.17-4.212-0.352-5.527-0.462c-1.316-0.11-2.293-0.933-2.31-2.583c-0.004-0.312-0.004-0.325-0.003-0.636
		c0.002-1.747,1.094-2.636,2.504-2.643c2.521-0.011,5.966-0.019,8.534-0.023c2.775-0.005,2.859-5.435,0.149-5.601
		c-2.735-0.167-4.98-0.246-7.705-0.246c-0.687,0-1.262,0.004-1.951,0.014c-5.183,0.077-8.969,2.895-8.821,9.434
		c0.002,0.022,0.002,0.067,0.002,0.09c0.12,4.988,2.526,7.369,6.242,7.68c2.041,0.172,4.212,0.353,5.528,0.464
		c1.314,0.109,2.292,0.932,2.308,2.582c0.005,0.312,0.005,0.325,0.005,0.636c-0.003,1.747-1.095,2.637-2.504,2.643
		c-2.521,0.011-6.186,0.001-8.756,0.006c-2.774,0.004-2.858,5.436-0.147,5.601c2.733,0.167,5.199,0.264,7.925,0.264
		c0.686,0,1.26-0.004,1.95-0.014c5.183-0.076,8.968-2.894,8.822-9.435C74.981,35.529,74.981,35.485,74.981,35.462"/>
	<path clip-path="url(#SVGID_2_)" fill="#262626" d="M135.901,15.602l-10.287,0.797c-2.316,0.181-3.834,1.295-3.834,4.402v20.68
		c0,4.692,7.883,4.692,7.883,0V22.578l6.238,0.483C140.977,23.456,140.977,15.207,135.901,15.602"/>
</g>
</svg>
