<?xml version="1.0" encoding="utf-8"?>
<!-- Generator: Adobe Illustrator 15.0.0, SVG Export Plug-In  -->
<!DOCTYPE svg PUBLIC "-//W3C//DTD SVG 1.1//EN" "http://www.w3.org/Graphics/SVG/1.1/DTD/svg11.dtd" [
	<!ENTITY ns_flows "http://ns.adobe.com/Flows/1.0/">
]>
<svg version="1.1"
	 xmlns="http://www.w3.org/2000/svg" xmlns:xlink="http://www.w3.org/1999/xlink" xmlns:a="http://ns.adobe.com/AdobeSVGViewerExtensions/3.0/"
	 x="0px" y="0px" width="99px" height="30px" viewBox="-0.029 0 99 30" overflow="visible" enable-background="new -0.029 0 99 30"
	 xml:space="preserve">
<defs>
</defs>
<g>
	<defs>
		<rect id="SVGID_1_" width="98.942" height="30"/>
	</defs>
	<clipPath id="SVGID_2_">
		<use xlink:href="#SVGID_1_"  overflow="visible"/>
	</clipPath>
	<path clip-path="url(#SVGID_2_)" fill="#262626" d="M33.264,23.771c-2.195-4.77-11.586-22.286-12.377-23.769h-7.518V30h5.122V6.238
		C20.704,11.002,30.09,28.516,30.892,30h7.488V0.002h-5.115V23.771"/>
	<path clip-path="url(#SVGID_2_)" fill="#262626" d="M52.02,17.351l4.501-12.394l4.473,12.394H52.02z M65.568,30h5.857L59.942,0
		h-6.846L41.604,30h5.843l2.893-7.99h12.344L65.568,30"/>
	<polygon clip-path="url(#SVGID_2_)" fill="#262626" points="98.944,30 88.273,14.168 97.611,0 91.278,0 85.066,9.759 78.718,0 
		72.383,0 81.908,14.168 71.425,30 77.83,30 85.125,18.494 92.569,30 	"/>
	<rect clip-path="url(#SVGID_2_)" fill="#262626" width="5.541" height="30"/>
</g>
</svg>
