<svg xmlns="http://www.w3.org/2000/svg" width="71.2469mm" height="13.5146mm" viewBox="0 0 201.9598 38.3091">
  <defs>
    <style>
      .cls-1 {
        fill: #7d7e7e;
      }
    </style>
  </defs>
  <title>アセット 5</title>
  <g id="レイヤー_2" data-name="レイヤー 2">
    <g id="レイヤー_1-2" data-name="レイヤー 1">
      <g>
        <g>
          <path class="cls-1" d="M21.5561,34.6521A4.9462,4.9462,0,0,1,18.87,33.6205a9.4135,9.4135,0,0,0-1.0367-.6006,14.7293,14.7293,0,0,0-4.037-1.2149,40.6231,40.6231,0,0,0-9.3712-.1188A37.136,37.136,0,0,0,.71,32.2708.5566.5566,0,0,1,0,31.7362V8.069a.5564.5564,0,1,1,1.1128,0V31.0407c1.2265-.2347,3.1-.4535,3.2205-.4629a41.556,41.556,0,0,1,9.628.1275,15.8226,15.8226,0,0,1,4.342,1.3062,10.33,10.33,0,0,1,1.1638.67,4.0526,4.0526,0,0,0,2.089.8577,2.3381,2.3381,0,0,0,1.5061-.6433c.11-.0855.21-.1637.3036-.2253a14.2627,14.2627,0,0,1,5.2008-1.8452,32.0372,32.0372,0,0,1,5.5747-.4354,37.6051,37.6051,0,0,1,7.3282.4557c.1913.0348.3822.0732.5734.1116V8.069a.5564.5564,0,1,1,1.1128,0V31.6318a.5556.5556,0,0,1-.1985.426.569.569,0,0,1-.4535.1225c-.2214-.0392-.4412-.0834-.6615-.1283-.19-.0384-.38-.0768-.57-.1108a36.8208,36.8208,0,0,0-7.1184-.4383,31.0209,31.0209,0,0,0-5.3809.4166,13.2286,13.2286,0,0,0-4.7879,1.6756c-.0732.0493-.1514.1109-.2377.1782A3.3949,3.3949,0,0,1,21.5561,34.6521Z"/>
          <g>
            <path class="cls-1" d="M24.7339,27.0808a.5564.5564,0,0,1-.2633-1.0468c6.5679-3.52,11.9473-2.766,12.173-2.7312a.5553.5553,0,0,1,.4672.6317.5623.5623,0,0,1-.6317.4687,20.4008,20.4008,0,0,0-11.4826,2.6117A.5535.5535,0,0,1,24.7339,27.0808Z"/>
            <path class="cls-1" d="M24.7339,23.9258a.5564.5564,0,0,1-.2633-1.0468c6.5693-3.5208,11.9477-2.766,12.173-2.7319a.5563.5563,0,0,1-.1645,1.1A20.4072,20.4072,0,0,0,24.9965,23.86.5535.5535,0,0,1,24.7339,23.9258Z"/>
            <path class="cls-1" d="M21.5778,31.8311a.5558.5558,0,0,1-.3491-.1232c-5.537-4.46-18.0835-3.155-18.2092-3.14a.5439.5439,0,0,1-.4318-.1384.5583.5583,0,0,1-.1847-.4144V4.3482a.5557.5557,0,0,1,.4738-.55c.3477-.0529,8.5739-1.2092,18.701,4.1264,10.1286-5.3356,18.3533-4.18,18.7011-4.1264a.5557.5557,0,0,1,.4738.55V28.0146a.5568.5568,0,0,1-.1895.4181.5436.5436,0,0,1-.4394.1333c-.1166-.0145-11.6984-1.4707-18.2239,3.1622A.5547.5547,0,0,1,21.5778,31.8311ZM7.3836,27.2525c4.2185,0,10.4264.5383,14.2131,3.334,6.077-4.0454,15.5087-3.4441,18.0432-3.1934V4.85A33.2672,33.2672,0,0,0,21.8408,9.0456a.5546.5546,0,0,1-.5259,0A33.202,33.202,0,0,0,3.5158,4.8488V27.4039C4.2757,27.3416,5.6645,27.2525,7.3836,27.2525Z"/>
            <path class="cls-1" d="M24.7336,20.4789a.5562.5562,0,0,1-.5564-.5564V10.4278a.5564.5564,0,0,1,.2934-.49c6.5682-3.5194,11.9462-2.766,12.173-2.7327a.5571.5571,0,0,1,.4738.5506v9.6939a.5578.5578,0,0,1-.17.4006.5909.5909,0,0,1-.406.1558c-.0732-.0036-7.2377-.226-11.5174,2.3914A.555.555,0,0,1,24.7336,20.4789Zm.5563-9.7157v8.2153c3.8078-1.9169,8.9188-2.0943,10.677-2.0943h.0377V8.2624A21.0349,21.0349,0,0,0,25.29,10.7632Z"/>
            <path class="cls-1" d="M21.5778,28.9036a.5566.5566,0,0,1-.5563-.5564V11.0914a.5564.5564,0,1,1,1.1127,0V28.3472A.5566.5566,0,0,1,21.5778,28.9036Z"/>
          </g>
        </g>
        <g>
          <path class="cls-1" d="M94.5639,6.6831h-5.939V1.31a.5564.5564,0,1,1,1.1127,0V5.57h4.8263a.5564.5564,0,0,1,0,1.1128Z"/>
          <path class="cls-1" d="M93.8858,37.9447H63.5776a1.3,1.3,0,0,1-1.2982-1.2982V1.6626A1.3,1.3,0,0,1,63.5776.3644H88.451a2.72,2.72,0,0,1,1.6626.6564l4.3525,4.0714a2.5157,2.5157,0,0,1,.7179,1.6546v29.9A1.3,1.3,0,0,1,93.8858,37.9447ZM63.5776,1.4772a.1877.1877,0,0,0-.1855.1854V36.6465a.1877.1877,0,0,0,.1855.1854H93.8858a.1877.1877,0,0,0,.1855-.1854v-29.9a1.439,1.439,0,0,0-.3659-.8432l-4.3517-4.07a1.63,1.63,0,0,0-.9027-.3564Z"/>
          <path class="cls-1" d="M89.274,27.3474H68.19V15.0136h5.7963l.9346-2.866h7.6227l.9345,2.866H89.274ZM69.3022,26.2346h18.859V16.1263H82.6706L81.736,13.26H75.7274l-.9345,2.8659H69.3022Z"/>
          <path class="cls-1" d="M78.7317,25.0806a4.5235,4.5235,0,1,1,4.5235-4.5235A4.5286,4.5286,0,0,1,78.7317,25.0806Zm0-7.9342a3.4107,3.4107,0,1,0,3.4107,3.4107A3.4145,3.4145,0,0,0,78.7317,17.1464Z"/>
          <path class="cls-1" d="M86.8214,18.2482a.7963.7963,0,1,1-.7875-.7839A.7982.7982,0,0,1,86.8214,18.2482Z"/>
        </g>
        <g>
          <path class="cls-1" d="M140.737,34.6H114.7726a1.3,1.3,0,0,1-1.2983-1.2982V1.2982A1.3,1.3,0,0,1,114.7726,0H140.737a1.3,1.3,0,0,1,1.2982,1.2982V33.3017A1.3,1.3,0,0,1,140.737,34.6ZM114.7726,1.1128a.1877.1877,0,0,0-.1855.1854V33.3017a.1877.1877,0,0,0,.1855.1854H140.737a.1876.1876,0,0,0,.1854-.1854V1.2982a.1876.1876,0,0,0-.1854-.1854Z"/>
          <path class="cls-1" d="M144.4462,38.3091H118.4818a2.4591,2.4591,0,0,1-1.6511-.7353l-2.8427-3.1579a.5566.5566,0,1,1,.8273-.7448l2.842,3.1579a1.3757,1.3757,0,0,0,.8245.3673h25.9644a.1876.1876,0,0,0,.1854-.1854V4.2656a.5564.5564,0,1,1,1.1128,0V37.0109A1.3,1.3,0,0,1,144.4462,38.3091Z"/>
          <path class="cls-1" d="M117.74,31.58a.5566.5566,0,0,1-.5564-.5564V3.5759a.5564.5564,0,1,1,1.1128,0V31.024A.5566.5566,0,0,1,117.74,31.58Z"/>
          <path class="cls-1" d="M137.0278,16.0539H122.191a1.3,1.3,0,0,1-1.2983-1.2982V8.0791a1.3,1.3,0,0,1,1.2983-1.2982h14.8368a1.3,1.3,0,0,1,1.2982,1.2982v6.6766A1.3,1.3,0,0,1,137.0278,16.0539Zm-14.8368-8.16a.1878.1878,0,0,0-.1855.1855v6.6766a.1877.1877,0,0,0,.1855.1854h14.8368a.1876.1876,0,0,0,.1854-.1854V8.0791a.1877.1877,0,0,0-.1854-.1855Z"/>
        </g>
        <g>
          <path class="cls-1" d="M176.1041,33.5916h-10.44a.5566.5566,0,0,1-.5564-.5564V3.2739a.5565.5565,0,0,1,.5564-.5564h10.44a.5565.5565,0,0,1,.5563.5564V33.0352A.5566.5566,0,0,1,176.1041,33.5916ZM166.22,32.4788h9.3274V3.83H166.22Z"/>
          <rect class="cls-1" x="165.4481" y="8.6102" width="10.7052" height="1.1128"/>
          <rect class="cls-1" x="165.664" y="29.7592" width="10.4401" height="1.1128"/>
          <rect class="cls-1" x="165.4481" y="5.782" width="10.7052" height="1.1128"/>
          <path class="cls-1" d="M170.9286,27.4192a.5561.5561,0,0,1-.3934-.163l-2.3733-2.3733a.5561.5561,0,0,1,0-.7868l2.3733-2.374a.5561.5561,0,0,1,.3934-.163h0a.5558.5558,0,0,1,.3933.163l2.3719,2.374a.5563.5563,0,0,1,0,.7868l-2.3719,2.3733A.5558.5558,0,0,1,170.9286,27.4192Zm-1.5866-2.93,1.5866,1.5866,1.5851-1.5866-1.5851-1.5873Z"/>
          <path class="cls-1" d="M188.7921,33.5916H178.3542a.5566.5566,0,0,1-.5564-.5564V3.2739a.5565.5565,0,0,1,.5564-.5564h10.4379a.5565.5565,0,0,1,.5564.5564V33.0352A.5566.5566,0,0,1,188.7921,33.5916Zm-9.8815-1.1128h9.3251V3.83h-9.3251Z"/>
          <rect class="cls-1" x="178.1369" y="8.6102" width="10.706" height="1.1128"/>
          <rect class="cls-1" x="178.3542" y="29.7592" width="10.4379" height="1.1128"/>
          <rect class="cls-1" x="178.1369" y="5.782" width="10.706" height="1.1128"/>
          <path class="cls-1" d="M183.6166,27.4192h0a.5558.5558,0,0,1-.3933-.163l-2.3726-2.3733a.5561.5561,0,0,1,0-.7868l2.3726-2.374a.5727.5727,0,0,1,.7867,0l2.3733,2.374a.5561.5561,0,0,1,0,.7868L184.01,27.2562A.5561.5561,0,0,1,183.6166,27.4192Zm-1.5858-2.93,1.5858,1.5866,1.5866-1.5866-1.5866-1.5873Z"/>
          <path class="cls-1" d="M201.4034,33.5916H190.9655a.5566.5566,0,0,1-.5564-.5564V3.2739a.5565.5565,0,0,1,.5564-.5564h10.4379a.5565.5565,0,0,1,.5564.5564V33.0352A.5566.5566,0,0,1,201.4034,33.5916Zm-9.8815-1.1128h9.3251V3.83h-9.3251Z"/>
          <rect class="cls-1" x="190.7482" y="8.6102" width="10.706" height="1.1128"/>
          <rect class="cls-1" x="190.9655" y="29.7592" width="10.4379" height="1.1128"/>
          <rect class="cls-1" x="190.7482" y="5.782" width="10.706" height="1.1128"/>
          <path class="cls-1" d="M196.2279,27.4192h0a.5562.5562,0,0,1-.3934-.163l-2.3725-2.3733a.5561.5561,0,0,1,0-.7868l2.3725-2.374a.5728.5728,0,0,1,.7868,0l2.3733,2.374a.5563.5563,0,0,1,0,.7868l-2.3733,2.3733A.5561.5561,0,0,1,196.2279,27.4192Zm-1.5858-2.93,1.5858,1.5866,1.5866-1.5866-1.5866-1.5873Z"/>
        </g>
      </g>
    </g>
  </g>
</svg>
