<svg id="icon" xmlns="http://www.w3.org/2000/svg" width="59.96" height="50.4" viewBox="0 0 59.96 50.4">
  <defs>
    <style>
      .cls-1 {
        fill: #ef7a00;
      }
    </style>
  </defs>
  <title>icon_showroom</title>
  <g>
    <path class="cls-1" d="M46,18.68a.75.75,0,0,1-.33-.08l-4.88-2.42a.75.75,0,1,1,.67-1.34l4.88,2.42A.75.75,0,0,1,46,18.68Z"/>
    <path class="cls-1" d="M52.48,44.43A.75.75,0,0,1,52.22,43L58,40.76a.83.83,0,0,0,.45-.66V25.5a1,1,0,0,0-.48-.77l-6-3a.75.75,0,0,1,.67-1.34l6,3A2.51,2.51,0,0,1,60,25.5V40.1a2.3,2.3,0,0,1-1.42,2.06l-5.79,2.22A.74.74,0,0,1,52.48,44.43Z"/>
    <path class="cls-1" d="M41.08,48.79a.75.75,0,0,1-.27-1.45l4.88-1.87a.75.75,0,1,1,.54,1.4l-4.88,1.87A.74.74,0,0,1,41.08,48.79Z"/>
    <path class="cls-1" d="M36.29,49.45h-.2l-34.43-4A1.9,1.9,0,0,1,0,43.56V21.18a2,2,0,0,1,1.62-1.89l34.44-5.35a1.58,1.58,0,0,1,1.85,1.59V47.81a1.62,1.62,0,0,1-1.63,1.64Zm.1-34L1.85,20.76a.46.46,0,0,0-.35.41V43.56a.41.41,0,0,0,.33.37l34.43,4a.16.16,0,0,0,.12,0,.15.15,0,0,0,0-.11V15.52A.12.12,0,0,0,36.39,15.43Z"/>
    <path class="cls-1" d="M26.5,45.24a.75.75,0,0,1-.75-.75v-5.8a.27.27,0,0,0-.26-.26l-14.14-.18c-.06,0-.14,0-.17.07a.24.24,0,0,0-.07.17v4.19a.75.75,0,0,1-1.5,0V38.48a1.73,1.73,0,0,1,.52-1.24,1.82,1.82,0,0,1,1.24-.5l14.14.18a1.77,1.77,0,0,1,1.74,1.76v5.8A.75.75,0,0,1,26.5,45.24Z"/>
    <path class="cls-1" d="M7,27.1a.75.75,0,0,1-.07-1.5L31.5,23.32a.75.75,0,0,1,.14,1.49L7.06,27.1Z"/>
    <path class="cls-1" d="M7,31.77a.75.75,0,0,1,0-1.5l24.5-1.55a.73.73,0,0,1,.8.7.75.75,0,0,1-.7.79L7,31.77Z"/>
    <path class="cls-1" d="M42.52,8.66a.75.75,0,0,1-.08-1.5l9.37-1a.4.4,0,0,0,.33-.36V4.21a.75.75,0,1,1,1.5,0V5.77A1.89,1.89,0,0,1,52,7.63l-9.38,1Z"/>
    <path class="cls-1" d="M47.55,50.4a2,2,0,0,1-1.87-1.12,6.38,6.38,0,0,1-.47-2.22V11.17a.15.15,0,0,0,0-.12A.15.15,0,0,0,45,11l-2.32.25a3.93,3.93,0,0,1-2.32-.56l-1.22-.8A2.82,2.82,0,0,1,38,7.75V3.47A1.91,1.91,0,0,1,39.65,1.6L52.48,0a2.66,2.66,0,0,1,2.28,1l.8,1.07a4.25,4.25,0,0,1,.75,2.25V8.12A1.89,1.89,0,0,1,54.65,10l-4.43.49a.4.4,0,0,0-.33.36V47.05a6.37,6.37,0,0,1-.47,2.22A2,2,0,0,1,47.55,50.4ZM45.07,9.53a1.62,1.62,0,0,1,1.64,1.65V47.05a4.86,4.86,0,0,0,.34,1.61.65.65,0,0,0,1,0,4.85,4.85,0,0,0,.34-1.61V10.82A1.89,1.89,0,0,1,50.06,9l4.43-.49a.4.4,0,0,0,.33-.36V4.3A2.82,2.82,0,0,0,54.36,3l-.8-1.07a1.18,1.18,0,0,0-.9-.38L39.83,3.09a.42.42,0,0,0-.33.38V7.75a1.36,1.36,0,0,0,.5.92l1.22.8a2.61,2.61,0,0,0,1.34.32l2.32-.25Z"/>
  </g>
</svg>
