<svg id="icon" xmlns="http://www.w3.org/2000/svg" width="45.5" height="49.57" viewBox="0 0 45.5 49.57">
  <defs>
    <style>
      .cls-1 {
        fill: #ef7a00;
      }
    </style>
  </defs>
  <title>icon_print</title>
  <g>
    <circle class="cls-1" cx="7.39" cy="18.07" r="1.5"/>
    <path class="cls-1" d="M30.75,42.62h-16a.75.75,0,0,0,0,1.5h16a.75.75,0,0,0,0-1.5Z"/>
    <path class="cls-1" d="M30.75,37.73h-16a.75.75,0,0,0,0,1.5h16a.75.75,0,0,0,0-1.5Z"/>
    <path class="cls-1" d="M41.75,11.41H35.49s0,0,0-.06V1.75A1.75,1.75,0,0,0,33.75,0h-22A1.75,1.75,0,0,0,10,1.75v9.66H3.75A3.75,3.75,0,0,0,0,15.16v20a3.75,3.75,0,0,0,3.75,3.75H10v8.91a1.75,1.75,0,0,0,1.75,1.75h22a1.75,1.75,0,0,0,1.75-1.75V38.91h6.25a3.75,3.75,0,0,0,3.75-3.75v-20A3.75,3.75,0,0,0,41.75,11.41ZM11.5,1.75a.25.25,0,0,1,.25-.25h22a.25.25,0,0,1,.25.25v9.6s0,0,0,.06H11.5ZM33.75,48.07h-22a.25.25,0,0,1-.25-.25V34H34V47.82A.25.25,0,0,1,33.75,48.07ZM44,35.16a2.25,2.25,0,0,1-2.25,2.25H35.5V34h2.25a.75.75,0,0,0,0-1.5h-30a.75.75,0,0,0,0,1.5H10v3.45H3.75A2.25,2.25,0,0,1,1.5,35.16v-20a2.25,2.25,0,0,1,2.25-2.25h38A2.25,2.25,0,0,1,44,15.16Z"/>
  </g>
</svg>
