<svg id="レイヤー_1" data-name="レイヤー 1" xmlns="http://www.w3.org/2000/svg" xmlns:xlink="http://www.w3.org/1999/xlink" viewBox="0 0 110.74 43"><defs><style>.cls-1{fill:none;}.cls-2{fill:#0f2b4b;}.cls-3{clip-path:url(#clip-path);}.cls-4,.cls-5{fill:#fff;}.cls-5{fill-rule:evenodd;}</style><clipPath id="clip-path" transform="translate(-0.129)"><rect class="cls-1" width="111" height="43.006"/></clipPath></defs><title>logo_grohe</title><rect class="cls-2" x="54.957" width="55.783" height="43"/><g class="cls-3"><path class="cls-4" d="M102.81,24.013a8.747,8.747,0,0,1-1.457.153,12.176,12.176,0,0,1-3.572-.726l-2.042-.693a13.632,13.632,0,0,0-3.572-.666,13.647,13.647,0,0,0-3.567.666l-2.042.693a12.182,12.182,0,0,1-3.573.726,12.164,12.164,0,0,1-3.572-.726l-2.043-.693a13.661,13.661,0,0,0-3.568-.666,13.659,13.659,0,0,0-3.571.666l-2.042.693a12.176,12.176,0,0,1-3.572.726,8.747,8.747,0,0,1-1.457-.153l.085.141a4.467,4.467,0,0,0,.564.775,4.785,4.785,0,0,0,.789.06,13.048,13.048,0,0,0,3.591-.687l2.042-.689a12.052,12.052,0,0,1,3.571-.726,11.627,11.627,0,0,1,3.061.561l2.55.854a13.069,13.069,0,0,0,3.573.687,13.056,13.056,0,0,0,3.572-.687l2.549-.854a11.593,11.593,0,0,1,3.061-.561,12.04,12.04,0,0,1,3.571.726l2.042.689a13.055,13.055,0,0,0,3.59.687,4.869,4.869,0,0,0,.793-.06,4.734,4.734,0,0,0,.561-.775Z" transform="translate(-0.129)"/><path class="cls-4" d="M99.764,26.886l-2.972-.913c-1.338-.412-1.854-.554-2.567-.712A10.267,10.267,0,0,0,92.167,25a13.884,13.884,0,0,0-3.567.666l-2.042.693a11.986,11.986,0,0,1-3.584.726,11.924,11.924,0,0,1-3.581-.726l-2.043-.693A13.931,13.931,0,0,0,73.778,25a10.3,10.3,0,0,0-2.055.264c-.7.156-1.263.31-2.567.712l-2.97.913a5.066,5.066,0,0,0,.757.6l1.652-.5,1.364-.4.547-.162A11.775,11.775,0,0,1,73.78,25.8a11.734,11.734,0,0,1,3.06.561l2.553.857a13.043,13.043,0,0,0,3.582.684,13.129,13.129,0,0,0,3.583-.684l2.55-.857a11.768,11.768,0,0,1,3.06-.561,11.726,11.726,0,0,1,3.273.612l.547.162,1.365.4,1.654.5a5.38,5.38,0,0,0,.757-.6" transform="translate(-0.129)"/><path class="cls-4" d="M96.437,28.821l-.187-.068-.511-.171a13.081,13.081,0,0,0-3.573-.67,12.647,12.647,0,0,0-3.058.52l-.508.15q-.388.128-.514.171l-.51.175-.507.173-.511.174A11.954,11.954,0,0,1,82.986,30a11.267,11.267,0,0,1-3.063-.564l-.511-.162L78.9,29.1l-.507-.173-.511-.175-.514-.171a13.071,13.071,0,0,0-3.568-.67,12.667,12.667,0,0,0-3.064.52l-.507.15c-.361.117-.436.143-.7.239l1.026.533.23-.071a10.805,10.805,0,0,1,3.015-.561,10.442,10.442,0,0,1,2.547.413l.51.148.508.165.514.17.511.176.507.173.51.17a12.616,12.616,0,0,0,3.575.686,11.984,11.984,0,0,0,3.06-.533l.511-.153.511-.17.507-.173.51-.176.514-.17.508-.165a10.983,10.983,0,0,1,3.06-.561,10.787,10.787,0,0,1,3.013.561l.229.071Z" transform="translate(-0.129)"/><path class="cls-4" d="M67.275,16.757v2.235a3.9,3.9,0,0,1-1.528.322,2.25,2.25,0,0,1-2.23-2.451,2.54,2.54,0,0,1,2.68-2.632,6.019,6.019,0,0,1,2.817.793V13.537a7.019,7.019,0,0,0-3.024-.711c-2.764,0-4.531,1.564-4.531,4.013,0,2.329,1.714,3.879,4.29,3.879a7.433,7.433,0,0,0,3.5-.948V16.757Z" transform="translate(-0.129)"/><path class="cls-4" d="M70.892,13.044V20.5h1.946V14.451h.839c1.1,0,1.593.351,1.593,1.134,0,.8-.551,1.254-1.519,1.254l-.429-.011H73.1l2.7,3.674H78.3l-2.48-3a2.219,2.219,0,0,0,1.412-2.122c0-1.58-1.024-2.337-3.159-2.337Z" transform="translate(-0.129)"/><polygon class="cls-4" points="88.87 13.044 88.87 20.502 90.816 20.502 90.816 17.313 94.254 17.313 94.254 20.502 96.199 20.502 96.199 13.044 94.254 13.044 94.254 15.801 90.816 15.801 90.816 13.044 88.87 13.044"/><polygon class="cls-4" points="98.276 13.044 98.276 20.502 103.873 20.502 103.873 19.04 100.219 19.04 100.219 17.268 102.905 17.268 102.905 15.864 100.219 15.864 100.219 14.505 103.447 14.505 103.447 13.044 98.276 13.044"/></g><path class="cls-5" d="M78.439,16.775c0,2.316,1.941,4.015,4.587,4.015s4.587-1.7,4.587-4.016-1.938-4.019-4.587-4.019-4.587,1.7-4.587,4.02m2.051,0a2.537,2.537,0,1,1,5.072,0,2.537,2.537,0,1,1-5.072,0" transform="translate(-0.129)"/><path class="cls-2" d="M18.815,18.077a2.951,2.951,0,0,1-1.851.863.7.7,0,0,1-.585-.382c.912-.592,1.759-1.283,1.759-2.295a1.082,1.082,0,0,0-1.178-1.105c-.879,0-1.673.772-1.673,2.256a3,3,0,0,0,.13.933s-1.19.656-1.54.165c-.238-.333.008-1.173.185-1.769.184-.616.274-.919.087-1.136-.355-.409-1.721-.381-1.721-.381a.63.63,0,0,0-.674-.621.517.517,0,0,0-.494.581.744.744,0,0,0,.368.649.5.5,0,0,1,.19.478c-.036.582-.487,2.112-1.2,2.112-.368,0-.674-.28-.674-.992a1.848,1.848,0,0,1,.066-.513c.083-.252.095-.415.032-.5a.3.3,0,0,0-.257-.089c-.582,0-.71.743-.8,1.062-.139.473-.361,1.111-.806,1.111-.333,0-.438-.422-.438-.727a12.659,12.659,0,0,1,.178-1.439c-.027-.175-.239-.273-.524-.273a1.353,1.353,0,0,0-.4.056,2.941,2.941,0,0,0,.593-1.878c0-2.291-1.7-3.323-3.579-3.323a3.574,3.574,0,0,0-3.88,3.669C.167,16.13,1.2,17.5,2.451,17.452a.209.209,0,0,0,.2-.134,2.775,2.775,0,0,1-1.474-3.04,2.829,2.829,0,0,1,2.673-2.653,2.61,2.61,0,0,1,2.873,2.8c0,.518-.192,2.024-1.049,2.143a.893.893,0,0,1-.127.009.982.982,0,0,1-.672-.274.773.773,0,0,1-.268-.521,3.7,3.7,0,0,1,.172-1.366.839.839,0,0,0-.186-.022.6.6,0,0,0-.484.25,3.443,3.443,0,0,0-.41,1.895,9.775,9.775,0,0,0,.484,3.344.8.8,0,0,0,.663.515A.365.365,0,0,0,5.1,20.3c.139-.122.135-.283-.011-.493L5.081,19.8l0-.008a10.688,10.688,0,0,1-.43-2.634l-.011-.183a1.2,1.2,0,0,0,.945.475A1.275,1.275,0,0,0,6.6,16.84.931.931,0,0,1,7,16.677c.328,0,.06.6.021,1.328-.042.784.22,1.639.932,1.639.4,0,1.061-.4,1.343-1.845.116,1.325.79,1.651,1.274,1.651.384,0,.9-.257,1.378-1.4a5.5,5.5,0,0,0,.437-1.971.616.616,0,0,1,.318-.059c.252,0,.7.078.766.371a1.34,1.34,0,0,1-.155.7A5.164,5.164,0,0,0,12.96,18.4a1.17,1.17,0,0,0,.234.928.963.963,0,0,0,.744.3A3.506,3.506,0,0,0,15.661,19a1.176,1.176,0,0,0,1.054.605,2.289,2.289,0,0,0,1.409-.519,1.934,1.934,0,0,0,.781-.962c0-.088-.066-.08-.09-.042m-2.79-.569a1.768,1.768,0,0,1,.3-1.035.814.814,0,0,1,.6-.383.288.288,0,0,1,.267.32v0c.017.9-1.106,1.595-1.106,1.595a1.532,1.532,0,0,1-.063-.5m8.7.816c-.056.171-.149.259-.277.259-.351,0-1.334-.848-1.334-1.238,0-.334.749-.37,1.07-.37.16,0,.327.011.5.023a.07.07,0,0,1,.054.037,2.691,2.691,0,0,1-.013,1.289M30.482,15.8a2.2,2.2,0,0,0-1.87,1.565l-.031-.281a.772.772,0,0,0-.4-.627,7.35,7.35,0,0,0-2.829-.206.038.038,0,0,1-.04-.029,7.687,7.687,0,0,1-.141-1.446c-.011-.684.07-1.1.265-1.185a10.09,10.09,0,0,1,3.517.134.178.178,0,0,0,.2-.056.417.417,0,0,0-.02-.415.977.977,0,0,0-.566-.522,3.624,3.624,0,0,0-1.128-.127c-.656,0-1.458.064-2.308.132-.9.073-1.828.147-2.634.147a6.764,6.764,0,0,1-1.335-.107c-.059.132-.2.694.151.93a3.965,3.965,0,0,0,2.075.077c.3-.039.93-.095.93-.095a7.906,7.906,0,0,0,.161,1.837,2.2,2.2,0,0,1,.1.729.093.093,0,0,1-.061.041,2.969,2.969,0,0,1-.606.047,18.31,18.31,0,0,1-1.861-.143.278.278,0,0,0-.3.291c0,.4.635.973,1.146,1.437.146.134.285.261.394.37a11.643,11.643,0,0,1,1.211,1.37c.289.38.4.532.654.532a.4.4,0,0,0,.46-.419c.042-.436-.1-1.568-.115-1.944s-.05-.878-.05-.878a7.441,7.441,0,0,1,1.207-.067c1.028.038,1.684.322,1.4,1.545a2.353,2.353,0,0,0-.127.852v0c.042.264.349.292.479.292a1.071,1.071,0,0,0,.214-.022,3.319,3.319,0,0,1,.8-2.418,1.745,1.745,0,0,1,1.334-.579c.165,0,.373-.02.373-.206,0-.34-.255-.558-.648-.558M42.3,28.624a.109.109,0,0,0-.086-.052c-.161-.014-.242.122-.348.3-.019.035-.041.075-.064.119-.107.2-.318.523-.556.523-.259,0-.323-.326-.321-.608a5.958,5.958,0,0,1,.17-1.142,2.221,2.221,0,0,0,.1-.98c-.183-.431-.726-.522-1.15-.522a3.453,3.453,0,0,0-.4.025l-.084.011,0-.084a.606.606,0,0,0-.638-.634h-.006c-.261,0-.563.144-.585.405a.814.814,0,0,0,.48.751c.1.064.156.1.154.171a3.517,3.517,0,0,1-.342,1.358,1.336,1.336,0,0,1-1.1.875h0a.851.851,0,0,1-.656-.27,2.061,2.061,0,0,0,1.042-1.721.921.921,0,0,0-.971-.986,1.064,1.064,0,0,0-.8.428,2.267,2.267,0,0,0-.084,2.113,4.582,4.582,0,0,1-.624.221c0,.023,0-.008,0-.008a2.839,2.839,0,0,0-1.876-2.776c-.3,0-.362.326-.4.441a7.882,7.882,0,0,1-.665,1.6,1.7,1.7,0,0,1-.443.531l-.005-.43a2.858,2.858,0,0,0-.7-1.585,1.725,1.725,0,0,0-1.186-.72.443.443,0,0,0-.383.179,1.037,1.037,0,0,0-.017.519,3.175,3.175,0,0,1,.01.553c-.076.97-.476,1.732-.907,1.732-.455,0-.524-.74-.505-1.041a2.045,2.045,0,0,1,.156-.671.533.533,0,0,0,.069-.16c-.008-.112-.229-.234-.306-.27l-.018-.008,0-.018a.825.825,0,0,0-.795-.637,1.412,1.412,0,0,0-1.122.538,1.314,1.314,0,0,1-.9-.379l0-.027a4.116,4.116,0,0,0-.417-2.6c-.167-.233-.605-.287-.724.228a4.979,4.979,0,0,0,.347,2.794v0a4.894,4.894,0,0,1-.56,1.617c-.3.568-.778,1.245-1.347,1.245-1.309,0-1.518-2.108-1.484-2.924a5.421,5.421,0,0,1,.115-.924c.129-.434.318-.682.294-.813-.048-.164-.453-.268-.84-.107a1.59,1.59,0,0,0-.59.92c-.14.37-.269.811-.4,1.231-.067.213-.127.435-.187.649-.233.836-.434,1.558-.749,1.558a.169.169,0,0,1-.12-.061,3.582,3.582,0,0,1-.248-2.591,13.273,13.273,0,0,1,.757-2.88c.241-.639.071-.892-.335-.924-.318-.025-.632.161-.619.317a25.116,25.116,0,0,1-.5,2.974,6.069,6.069,0,0,0,.4,3.878.933.933,0,0,0,.8.624c.576,0,.782-1.294.977-2.23.284-1.364.591-1.2.591-1.2s-.235,3.352,2.108,3.352a2.435,2.435,0,0,0,1.856-1.332,6.669,6.669,0,0,0,.736-1.97,3.234,3.234,0,0,0,.734.126h0l-.025.055a5.483,5.483,0,0,0-.367,1.1,2.282,2.282,0,0,0,.219,1.572.624.624,0,0,0,.5.237h0c.409,0,1.067-.841,1.386-1.371l.114-.189.027.219a1.025,1.025,0,0,0,.941.988.988.988,0,0,0,.131-.01.809.809,0,0,0,.666-.641l.08-.273a1.327,1.327,0,0,0,1.271,1.187c1.547,0,2.469-2.567,2.578-3.023.008-.029.04-.028.088,0,.945.473,1.414,1.3,1.116,1.906-.043.083-.395.12-.731.062s-.571-.193-.7.047c-.191.342.362,1.066,1.082,1.066a1.006,1.006,0,0,0,.987-.739,3.5,3.5,0,0,0,.921-.274,1.5,1.5,0,0,0,1.231.613,1.816,1.816,0,0,0,.417-.052,1.965,1.965,0,0,0,1.274-1.3,5.854,5.854,0,0,0,.371-1.407l.007-.043.039-.016a1.144,1.144,0,0,1,.438-.1c.41,0,.426.289.426.289a2.752,2.752,0,0,1-.163.874v0c-.029.1-.058.2-.085.292-.014.06-.03.12-.047.178a2.936,2.936,0,0,0-.134.679.923.923,0,0,0,.78,1.043.964.964,0,0,0,.119.008c.855,0,1.289-1.329,1.292-1.343a.333.333,0,0,0,.016-.26m-15.649.65a.232.232,0,0,1-.216-.152c-.294-.614.19-1.831.19-1.831a4.429,4.429,0,0,0,1.135-.139s-.449,2.122-1.109,2.122m4.058,0a.646.646,0,0,1-.623-.383,1.475,1.475,0,0,1,.09-.979,3.053,3.053,0,0,0,.175-.823l0-.1a1.93,1.93,0,0,1,1.049,1.454.732.732,0,0,1-.7.834m5.838-.859a1.48,1.48,0,0,1-.042-1.214.469.469,0,0,1,.445-.312c.232.023.388.291.274.718a1.571,1.571,0,0,1-.677.808m-22.043.893a3.381,3.381,0,0,1-.25-1.459c.032-.634-.251-1.067-.73-1.067a1.875,1.875,0,0,0-1.331.934l-.132.216.008-.252a1.1,1.1,0,0,0-.244-.828.687.687,0,0,0-.5-.208.644.644,0,0,0-.323.081,2.457,2.457,0,0,0-.824,1.2c-.035.082-.071.169-.108.26-.195.481-.416,1.026-.823,1.026a.292.292,0,0,1-.229-.1c-.219-.244-.177-.88-.116-1.406.012-.1.022-.2.03-.287a.508.508,0,0,0-.339-.258l-.008-.04a.991.991,0,0,0-1.408-.751,2.582,2.582,0,0,0-1.254,1.991,2.423,2.423,0,0,0,.327,1.8.751.751,0,0,0,.768.228c.21-.046.45-.66.627-1.107.206-.521.311-.773.453-.773a.159.159,0,0,1,.1.038l0,.041a1.83,1.83,0,0,0,.372,1.333.661.661,0,0,0,.5.232c.6,0,1.146-1,1.544-1.734.252-.467.39-.712.509-.738a.157.157,0,0,1,.164.05c.144.17.05.734-.018,1.143-.026.152-.046.371-.046.371-.021.345.009.709.288.815a.713.713,0,0,0,.243.033,1.132,1.132,0,0,0,.2-.017c.03-.006.033-.038.033-.049a2.875,2.875,0,0,1,.54-2.045.726.726,0,0,1,.562-.355c.423,0,.445.6.467,1.173.019.493.041,1,.295,1.126a.622.622,0,0,0,.648-.216.322.322,0,0,0,.015-.4M8.188,27.317c-.253.1-.466.578-.652,1-.2.457-.376.853-.619.853-.1,0-.287-.056-.331-.429a2.471,2.471,0,0,1,.208-1.134c.192-.457.48-.819.881-.819.444,0,.572.5.572.5ZM47.25,17.325c-.022,0-.069,0-.069.01-.021.421-.568,1.446-1.4,1.446a.737.737,0,0,1-.475-.151l0,0a2.411,2.411,0,0,0,.934-1.887v0a.966.966,0,0,0-.971-1c-.823,0-1.362.747-1.362,1.722a1.933,1.933,0,0,0,.32,1.113,1.6,1.6,0,0,1-.523.175,1.4,1.4,0,0,1-.158.009c-1.239-.015-.99-2.065-.99-2.065a8.559,8.559,0,0,0,.433-2.3c0-.424-.1-.919-.548-.919-.414,0-.747.743-.747,2.035a5.227,5.227,0,0,0,.108,1s-.077-.007-.143-.007A2.552,2.552,0,0,0,39.6,18.21a1.2,1.2,0,0,1-.82.48c-1.011,0-.876-1.563-.778-1.967a.238.238,0,0,0-.252-.158.5.5,0,0,0-.455.294,3.794,3.794,0,0,1-.425,1.161c-.241.408-.516.624-.8.624a.3.3,0,0,1-.234-.115c-.3-.365-.185-1.471-.138-1.735a.306.306,0,0,0-.339-.277.609.609,0,0,0-.366.135,9.371,9.371,0,0,0-.53.78h0a3.441,3.441,0,0,1-1.12,1.214.855.855,0,0,1-.35.08.645.645,0,0,1-.584-.407,2.652,2.652,0,0,0,1.229-.983,1.57,1.57,0,0,0,.31-1.132.777.777,0,0,0-.845-.595,1.389,1.389,0,0,0-.465.079,1.846,1.846,0,0,0-1.208,1.834,2.389,2.389,0,0,0,.048.557,2.371,2.371,0,0,1-1.61-.318.711.711,0,0,0,.121.576A1.25,1.25,0,0,0,31,18.724a2.731,2.731,0,0,0,.619-.086,1.562,1.562,0,0,0,1.339.835,1.986,1.986,0,0,0,1.577-1.226,1.749,1.749,0,0,1,.129-.23.216.216,0,0,1,.143-.1c.08-.007.1.042.1.042a.625.625,0,0,1,0,.159,1.646,1.646,0,0,0,.321,1.165.808.808,0,0,0,.614.294c.982,0,1.528-1.162,1.528-1.162a1.14,1.14,0,0,0,1.046,1.113,1.442,1.442,0,0,0,1.1-.573,1.011,1.011,0,0,0,.987,1.051c.613,0,1.247-.619,1.615-1.577l.053-.135a1.279,1.279,0,0,0,1.2,1.205,2.379,2.379,0,0,0,1.27-.359,1.587,1.587,0,0,0,1.362.4,1.814,1.814,0,0,0,1.577-1.728c0-.226-.131-.481-.329-.489m-14.758-.5a.872.872,0,0,1,.6-.337.29.29,0,0,1,.2.069.388.388,0,0,1,.068.41,1.749,1.749,0,0,1-1.134.929,1.261,1.261,0,0,1,.275-1.071m8.963,1.663c-.225.408-.5.633-.785.633a.392.392,0,0,1-.394-.414,1.655,1.655,0,0,1,1.247-1.468c.242,0,.281.082.281.082a3.2,3.2,0,0,1-.349,1.167m3.422-.3a1.205,1.205,0,0,1-.311-.806c0-.549.242-.8.566-.816a.47.47,0,0,1,.537.483c0,.606-.792,1.139-.792,1.139" transform="translate(-0.129)"/></svg>