<?xml version="1.0" encoding="utf-8"?>
<!-- Generator: Adobe Illustrator 15.0.0, SVG Export Plug-In  -->
<!DOCTYPE svg PUBLIC "-//W3C//DTD SVG 1.1//EN" "http://www.w3.org/Graphics/SVG/1.1/DTD/svg11.dtd" [
	<!ENTITY ns_flows "http://ns.adobe.com/Flows/1.0/">
]>
<svg version="1.1"
	 xmlns="http://www.w3.org/2000/svg" xmlns:xlink="http://www.w3.org/1999/xlink" xmlns:a="http://ns.adobe.com/AdobeSVGViewerExtensions/3.0/"
	 x="0px" y="0px" width="92px" height="22px" viewBox="0 0 92 22" overflow="visible" enable-background="new 0 0 92 22"
	 xml:space="preserve">
<defs>
</defs>
<path fill="#252525" d="M33.721,17.025V8.782h3.375V7.356h-3.375V4.461c0-0.883-0.875-1.289-1.514-0.43l-2.471,3.325h-2.033v1.425
	h2.033v8.021c0,3.437,0.569,5.198,5.124,5.198c0.884,0,1.956-0.108,2.44-0.23v-1.391c-0.212,0.059-1.037,0.194-1.627,0.194
	C34.101,20.573,33.721,19.708,33.721,17.025"/>
<path fill="#252525" d="M0,2.147v1.23c1.681,0.212,2.033,0.588,2.033,1.667v13.808c0,1.08-0.352,1.455-2.033,1.667v1.23
	c0.642-0.029,2.981-0.084,4.147-0.084c1.166,0,3.505,0.055,4.147,0.084v-1.23c-1.682-0.212-2.033-0.588-2.033-1.667V5.044
	c0-1.08,0.352-1.455,2.033-1.667v-1.23C7.652,2.176,5.313,2.231,4.147,2.231C2.981,2.231,0.642,2.176,0,2.147"/>
<path fill="#252525" d="M60.974,7.021c-2.226,0-4.581,0.504-5.611,0.895v10.936c0,1.08-0.352,1.455-2.033,1.667v1.23
	c0.643-0.029,2.86-0.084,4.026-0.084c1.372,0,3.817,0.055,4.459,0.084v-1.23c-1.862-0.235-2.467-0.529-2.467-1.667v-5.85V8.852
	c0.298-0.14,0.941-0.321,1.518-0.321c1.437,0,1.783,0.978,1.783,1.676c0,0.754,0.361,1.48,1.654,1.48
	c1.328,0,1.653-0.762,1.653-1.648C65.956,9.005,65.23,7.021,60.974,7.021"/>
<path fill="#252525" d="M24.563,18.852L24.563,18.852v-4.508c0-5.618-0.84-7.322-6.29-7.322c-2.31,0-5.069,0.448-6.479,0.895v10.936
	c0,1.08-0.352,1.455-2.033,1.667v1.23c0.642-0.029,2.86-0.084,4.025-0.084s3.383,0.055,4.026,0.084v-1.23
	c-1.682-0.212-2.033-0.588-2.033-1.667V8.879c0.596-0.196,1.431-0.377,2.25-0.377c2.033,0,2.548,1.118,2.548,5.841v7.348
	c0.717-0.015,1.463-0.026,1.993-0.026c1.166,0,3.383,0.055,4.026,0.084v-1.23C24.915,20.307,24.563,19.932,24.563,18.852"/>
<path fill="#252525" d="M73.474,18.852L73.474,18.852V7.356H67.47v1.23c1.667,0.213,2.02,0.588,2.02,1.667v8.599
	c0,1.08-0.352,1.455-2.033,1.667v1.23c0.643-0.029,2.86-0.084,4.026-0.084c1.166,0,3.383,0.055,4.025,0.084v-1.23
	C73.826,20.307,73.474,19.932,73.474,18.852"/>
<path fill="#252525" d="M71.372,5.137c1.418,0,2.568-1.15,2.568-2.569C73.94,1.15,72.79,0,71.372,0s-2.568,1.15-2.568,2.568
	C68.803,3.987,69.953,5.137,71.372,5.137"/>
<path fill="#252525" d="M45.518,7.018c-4.635,0-6.569,2.667-6.569,7.431c0,4.809,1.407,7.547,6.061,7.547
	c2.699,0,4.534-0.336,5.678-0.666V19.83c-0.624,0.224-2.592,0.681-4.204,0.681c-2.994,0-3.631-1.961-3.67-5.669h8.903
	C51.717,9.653,50.269,7.018,45.518,7.018 M45.443,8.447c2.298,0,2.58,2.227,2.613,4.969h-5.233
	C42.896,10.174,43.385,8.447,45.443,8.447"/>
<path fill="#252525" d="M84.016,7.021c-5.178,0-6.885,2.527-6.885,7.489c0,4.971,1.708,7.489,6.885,7.489s6.893-2.518,6.893-7.489
	C90.908,9.53,89.193,7.021,84.016,7.021 M84.016,20.575c-2.574,0-2.847-2.984-2.847-6.064c0-3.071,0.273-6.064,2.847-6.064
	s2.847,2.983,2.847,6.064C86.862,17.591,86.589,20.575,84.016,20.575"/>
</svg>
